<?xml version="1.0" encoding="UTF-8" standalone="no"?>
<!DOCTYPE svg PUBLIC "-//W3C//DTD SVG 1.1//EN" "http://www.w3.org/Graphics/SVG/1.1/DTD/svg11.dtd">
<svg width="100%" height="100%" viewBox="0 0 750 750" version="1.1" xmlns="http://www.w3.org/2000/svg" xmlns:xlink="http://www.w3.org/1999/xlink" xml:space="preserve" xmlns:serif="http://www.serif.com/" style="fill-rule:evenodd;clip-rule:evenodd;stroke-linecap:round;stroke-linejoin:round;stroke-miterlimit:1.5;">
    <g transform="matrix(0.74645,0,0,0.732252,-22.8142,-71.7337)">
        <circle cx="533.015" cy="610.388" r="470.925" style="fill:url(#_Linear1);stroke:black;stroke-width:46.02px;"/>
    </g>
    <g transform="matrix(4.42707,0,0,4.15654,-89.3198,-77.0355)">
        <path d="M29.045,114C29.045,114 34.219,109.634 38.1,108.34C41.981,107.047 46.509,109.957 50.389,108.987C54.27,108.017 82.406,74.407 87.904,71.496C93.402,68.585 96.184,69.701 99.742,69.701C103.299,69.701 104.074,63.466 109.249,62.819C114.423,62.172 112.005,64.087 119.444,67.678C126.224,70.951 126.461,69.512 130.018,69.835C133.576,70.159 159.377,105.753 167.462,106.077C175.547,106.4 182.985,98.962 182.985,98.962C182.985,98.962 186.866,112.868 183.309,129.685C179.751,146.502 167.462,165.583 156.143,173.991C144.823,182.4 115.07,192.749 101.811,190.162C88.551,187.574 77.955,197.947 59.445,176.579C47.343,162.608 37.503,149.024 33.093,138.101C27.299,123.754 29.045,114 29.045,114Z"/>
    </g>
    <g transform="matrix(4.11212,0,0,4.11212,-52.7886,-80.3613)">
        <path d="M46.525,167.842C46.525,167.842 58.151,159.438 74.321,153.94C90.491,148.443 116.311,155.092 118.628,151.353C122.382,145.296 104.515,146.669 105,138.584C105.485,130.499 122.225,131.497 126.84,131.116C132.534,130.645 152.585,132.919 151.615,129.685C150.645,126.451 142.836,129.866 141.589,124.834C140.266,119.493 145.479,117.768 152.821,115.833C161.279,113.604 174.096,110.791 174.096,110.791C174.096,110.791 171.181,114.939 165.061,116.167C159.112,117.36 152.405,119.414 152.321,123.1C152.252,126.177 163.869,126.029 162.611,131.302C160.66,139.477 121.188,135.765 122.185,141.004C123.645,148.679 144.716,148.139 143.57,154.97C142.653,160.43 112.048,158.714 97.333,169.387C82.618,180.059 80.466,188.545 80.466,188.545C66.34,184.4 57.801,179.824 46.525,167.842Z" style="fill:url(#_Linear2);"/>
    </g>
    <g transform="matrix(1.00813,0,0,1.1291,-148.42,-168.003)">
        <ellipse cx="338.428" cy="315.189" rx="40.67" ry="36.312" style="fill:rgb(38,0,4);"/>
    </g>
    <defs>
        <linearGradient id="_Linear1" x1="0" y1="0" x2="1" y2="0" gradientUnits="userSpaceOnUse" gradientTransform="matrix(9.52674,438.691,-430.346,9.71147,527.481,156.189)"><stop offset="0" style="stop-color:rgb(143,130,235);stop-opacity:1"/><stop offset="1" style="stop-color:rgb(255,163,188);stop-opacity:1"/></linearGradient>
        <linearGradient id="_Linear2" x1="0" y1="0" x2="1" y2="0" gradientUnits="userSpaceOnUse" gradientTransform="matrix(-1.03047,82.9099,-82.9099,-1.03047,147.85,113.561)"><stop offset="0" style="stop-color:rgb(255,133,144);stop-opacity:1"/><stop offset="1" style="stop-color:rgb(155,135,227);stop-opacity:1"/></linearGradient>
    </defs>
</svg>
