<svg xmlns="http://www.w3.org/2000/svg" width="253" height="60" fill="none" viewBox="0 0 253 60">
  <path fill="#A73439" d="M128.195 7.953c1.138-.043 2.319-1.1 2.427-2.34.054-.612-.249-1.376-1.354-1.355-1.252.027-2.617 1.192-2.606 2.444.005.72.395 1.3 1.533 1.251M80.688 2.536c-.812-1.82-2.595-2.747-4.23-2.688-5.136.18-4.421 5.212-4.421 5.212s1.62-2.254 3.911-1.354c2.01.79 1.355 4.437.753 5.623-1.75 3.44-5.082 6.138-8.137 8.256l-.033.022c-.877-7.92-.764-11.686-3.039-14.427-1.62-1.95-4.117-3.31-7.942-3.332-4.692-.027-8.673 2.606-10.152 6.642-.932 2.547-.52 6.1.953 8.278.959 1.414 2.638 2.801 4.236 2.845 1.54.038 2.157-1.371 2.157-1.371s-2.254.558-4.02-1.956c-1.322-1.885-1.696-4.513-.921-6.712 1.132-3.218 4.058-5.385 7.287-5.385 1.782 0 3.456.682 4.713 1.918 1.826 1.798 1.966 3.082 2.557 8.494l.016.163-4.675 3.96c-.06-.748-.412-5.103-.78-7.584-.255-1.723-2.005-1.945-3.5-1.945-.33 0-.65.01-.959.021-.146 0-.287.011-.423.011h-.038l-.763 1.923h.086a5 5 0 0 1 .385-.016c1.587 0 1.652.683 1.75 1.717.01.093.016.195.027.293.25 2.286 1.257 10.965 1.257 10.965l7.904-6.642 1.073 6.642s6.457-4.036 10.51-8.056c2.183-2.161 6.246-7.525 4.458-11.512zM106.45 15.76c-.157-1.728-2.086-4.486-2.216-4.681-.124-.2-.114-.325-.054-.52.054-.2.271-.98.271-.98H99.9s-4.172 6.37-6.34 9.247c-.308.412-.59.656-.926.9-1.885 1.365-3.84.498-2.969-1.593.325-.78 3.51-8.555 3.51-8.555h-3.163s-.325.678-.466 1.127c-1.29-1.538-3.548-1.55-5.2-1.094-3.008.829-6.892 4.572-6.529 9.21.109 1.397 1.225 3.391 3.364 3.391 1.447 0 3.273-.536 5.37-2.357.584 1.788 2.15 2.352 4.117 2.352.958 0 3.727.303 5.553-2.834 0 0 1.24 3.305 4.935 2.796 3.722-.51 5.504-4.074 5.293-6.415zm-19.85 2.048c-.948 1.31-4.361 4.036-5.59 1.663-1.139-2.2 2.134-8.083 4.701-8.392 2.363-.287 2.866 1.279 3.061 1.609zm16.123 1.592c-1.951 2.065-4.968.678-4.345-2.031.254-1.105 1.44-1.522 2.075-1.636 0 0-.634-1.03-1.793-.564l2.963-4.074c-.32.807-.114 1.956.677 3.029 1.804 2.454 1.327 4.318.423 5.276m94.076.927c-1.274-.526-.456-2.119.065-3.262 1.381-3.017 2.205-4.54 1.414-6.154-1.154-2.373-5.304-1.658-6.529-.255-.233-.736-1.186-1.289-2.54-1.289-1.62 0-1.81-.016-1.81-.016l-.58 1.354h.921c.862 0 1.013.612.493 1.772 0 0-1.582 3.83-2.833 6.338-.536 1.067-1.365 1.577-2.124 1.571-.715.114-1.414-.346-1.993-1.126 2.118-2.216 3.321-5.223 2.654-7.287-1.213-3.744-6.544-3.207-9.302-.439-2.438 2.449-3.321 5.033-3.109 7.043l-.022-.054c-.975.634-3.939 3.039-5.515 1.148-.406-.482-.401-1.55.049-2.66.449-1.11 2.595-5.975 2.595-5.975h2.557l.612-1.468h-2.606l2.416-5.646h-3.207l-2.362 5.646h-2.785l-.601 1.468h2.779c-.254.574-2.779 6.154-2.643 6.858-2.915 2.73-4.838 3.208-5.998 1.458l4.156-9.78h-3.316l-.471 1.182c-1.29-1.539-3.608-1.598-5.261-1.143-2.801.775-6.365 4.08-6.539 8.283-.39.363-3.218 2.931-4.426 2.433-1.273-.526-.455-2.119.065-3.262 1.382-3.017 2.205-4.54 1.42-6.154-1.154-2.373-5.31-1.658-6.529-.255-.233-.736-1.186-1.289-2.535-1.289-1.62 0-1.815-.016-1.815-.016l-.58 1.354h.921c.862 0 1.019.612.493 1.772 0 0-1.576 3.83-2.833 6.338-.666 1.333-1.837 1.799-2.687 1.474-.851-.325-1.533-1.051-.921-2.52l2.08-4.843c.461-1.083.732-3.575-2.026-3.575h-2.346l-.579 1.354h1.24c.862 0 1.1.688.574 1.848-1.603 3.543-1.999 4.854-2.123 5.406-.444.38-3.354 2.98-4.481 2.324-1.175-.682-.216-2.362.304-3.505 1.381-3.017 1.983-4.437 1.305-5.824-1.159-2.367-5.553-1.69-6.051-.574l3.847-9.047-3.246.016-8.787 20.75h3.213l4.22-9.915s1.961-1.75 3.153-.915c.536.373.807 1.273.406 2.286-.33.823-1.419 3.586-1.419 3.586-1.495 3.776 1.306 5.044 3.278 5.06 1.912.017 3.57-1.246 4.355-1.869.824 1.777 2.953 1.967 4.995 1.831 3.885-.265 4.703-2.828 5.9-5.439l1.902-4.61s2.091-1.788 3.293-.748c.629.542.531 1.42.266 2.113-.303.78-.759 1.875-1.43 3.635-1.452 3.798 1.235 4.979 3.034 5.082 1.359.081 3.12-.553 4.897-2.135.482 1.105 1.49 2.146 3.039 2.146 1.154 0 2.546-.347 4.128-1.404-.308.743-.726 1.653-.726 1.653-3.976 1.663-7.747 4.35-5.607 7.368 1.604 2.259 5.25 1.408 6.713-2.059.103-.244 1.766-4.123 2.806-6.61.574.526 1.246 1.046 2.167 1.046s2.443.06 4.919-2.107c2.66 4.399 8.034.666 8.836.076.618 1.224 1.783 1.993 3.31 1.993s2.991-.569 4.28-1.452c.894.927 2.124 1.512 3.738 1.496 1.246 0 2.335-.374 3.018-.764 1.75-.992 2.416-2.844 3.277-4.724l1.902-4.61s2.091-1.789 3.294-.748c.628.541.531 1.42.265 2.113-.298.78-.758 1.874-1.43 3.635-1.452 3.797 1.235 4.978 3.034 5.081.699.044 1.544-.038 2.373-.47 1.23-.64 1.511-2.222 1.511-3.251-.926 1.403-2.844 2.215-3.754 1.842zm-46.548 7.541c-.244.542-1.311 1.517-2.015.764-.851-.905.644-3.023 3.12-4.101zm3.917-10.06c-.948 1.31-4.334 4.29-5.445 1.284-.856-2.325 1.988-7.704 4.556-8.013 2.362-.287 2.872 1.279 3.061 1.609zm24.465 1.598c-2.827 2.28-4.734.19-3.716-2.99.926-2.905 2.628-4.606 4.074-5.158-1.463 1.94-1.712 5.596-.363 8.148zm2.243-8.224c2.238.59 1.799 3.44-.466 6.355-.693-1.972-.758-4.54.466-6.355"></path>
  <path fill="#503629" d="M186.706 53.975h9.129l1.441 4.237h10.033l-9.643-23.437h-11.35l-9.535 23.437h8.311l1.609-4.237zm4.816-12.655 2.715 7.964h-5.743zM64.155 53.975h9.129l1.441 4.237h10.033l-9.643-23.437h-11.35L54.23 58.212h8.311l1.609-4.237zm4.817-12.655 2.714 7.964h-5.743zM13.863 58.949c-5.667 0-10.45-1.653-13.896-3.836l3.342-4.995c3.1 1.793 7.32 3.06 10.348 3.06s3.836-.806 3.836-1.69c0-2.957-16.047-1.159-16.047-9.675 0-4.226 5.244-7.774 12.455-7.774 5.629 0 9.112 1.549 12.634 3.727l-3.625 4.61c-2.99-1.652-6.403-2.638-9.253-2.638-2.357 0-3.38.704-3.38 1.511 0 3.24 16.29 1.338 16.29 9.535 0 4.751-5.7 8.165-12.704 8.165M47.258 41.314v16.898h-9.432V41.314h-8.164v-6.539h25.755v6.54h-8.164zM102.604 41.314v16.898h-9.432V41.314h-8.164v-6.539h25.755v6.54h-8.164zM115.123 58.212V34.775h23.296v6.545h-13.864v3.272h9.15v3.9h-9.15v3.17h13.864v6.55zM210.689 58.212V34.775h9.432v23.437zM244.63 58.212c-1.306 0-2.113-1.62-2.113-3.625V51.24c0-1.267-.46-1.95-2.183-1.95h-4.291v8.923h-9.432V34.775h16.183c5.525 0 8.901 2.85 8.901 6.545v.574c0 2.254-1.832 4.329-4.822 4.995 3.483.455 4.962 2.633 4.962 5.06V54.3c0 1.48.353 2.78 1.16 3.798v.108h-8.376zm-2.357-14.79c0-1.512-.877-2.113-3.093-2.113h-3.131v4.415h3.131c2.216 0 3.093-.671 3.093-2.113v-.195zM164.916 41.32v3.277h7.363v4.687h-7.363v8.933h-9.432V34.781h22.906v6.539h-13.479z"></path>
</svg>