<?xml version="1.0" encoding="UTF-8" standalone="no"?>
<!DOCTYPE svg PUBLIC "-//W3C//DTD SVG 1.1//EN" "http://www.w3.org/Graphics/SVG/1.1/DTD/svg11.dtd">
<svg width="100%" height="100%" viewBox="0 0 1200 1200" version="1.1" xmlns="http://www.w3.org/2000/svg" xmlns:xlink="http://www.w3.org/1999/xlink" xml:space="preserve" xmlns:serif="http://www.serif.com/" style="fill-rule:evenodd;clip-rule:evenodd;stroke-linejoin:round;stroke-miterlimit:2;">
    <g transform="matrix(0.999912,0,0,1.00206,0.105067,-2.47295)">
        <rect x="-0.105" y="2.468" width="1200.11" height="1197.53" style="fill:url(#_Linear1);"/>
    </g>
    <g transform="matrix(6.14148,0,0,4.15654,-178.482,-194.226)">
        <path d="M29.045,114C29.045,114 34.219,109.634 38.1,108.34C41.981,107.047 46.509,109.957 50.389,108.987C54.27,108.017 82.406,74.407 87.904,71.496C93.402,68.585 96.184,69.701 99.742,69.701C103.299,69.701 104.074,63.466 109.249,62.819C114.423,62.172 112.005,64.087 119.444,67.678C126.224,70.951 126.461,69.512 130.018,69.835C133.576,70.159 163.911,99.222 171.996,99.546C180.081,99.869 224.455,107.604 224.455,107.604L224.455,335.43L29.062,335.43L29.045,114Z" style="fill:url(#_Linear2);"/>
        <path d="M28.616,112.89C28.616,112.89 33.928,108.421 37.91,107.093C39.949,106.414 42.158,106.81 44.367,107.277C46.378,107.703 48.389,108.191 50.245,107.727C50.537,107.654 50.986,107.333 51.579,106.856C53.211,105.542 55.716,103.05 58.665,99.968C68.681,89.501 83.738,72.344 87.612,70.293C93.247,67.31 96.096,68.423 99.742,68.423C101.293,68.423 102.203,66.965 103.324,65.535C104.725,63.747 106.355,61.898 109.176,61.545C112.079,61.183 112.846,61.608 113.937,62.558C114.881,63.381 116.1,64.719 119.712,66.463C126.354,69.669 126.587,68.243 130.072,68.56C130.553,68.603 131.481,69.07 132.737,69.936C135.347,71.734 139.604,75.252 144.424,79.224C151.591,85.128 160.015,92.047 166.082,95.73C168.568,97.24 170.634,98.212 172.019,98.268C180.116,98.592 224.556,106.334 224.556,106.334C224.991,106.41 225.32,106.956 225.32,107.604L225.32,335.43C225.32,336.136 224.932,336.708 224.455,336.708L29.062,336.708C28.584,336.708 28.197,336.136 28.197,335.43L28.18,114C28.18,113.541 28.346,113.118 28.616,112.89ZM29.045,114L29.062,335.43L224.455,335.43L224.455,107.604C224.455,107.604 180.081,99.869 171.996,99.546C163.911,99.222 133.576,70.159 130.018,69.835C126.461,69.512 126.224,70.951 119.444,67.678C112.005,64.087 114.423,62.172 109.249,62.819C104.074,63.466 103.299,69.701 99.742,69.701C96.184,69.701 93.402,68.585 87.904,71.496C82.406,74.407 54.27,108.017 50.389,108.987C46.509,109.957 41.981,107.047 38.1,108.34C34.219,109.634 29.045,114 29.045,114Z" style="fill:rgb(197,157,137);"/>
    </g>
    <g transform="matrix(5.70456,0,0,12.179,-115.319,-1096.29)">
        <path d="M42.149,188.545C42.149,188.545 64.64,169.975 80.81,164.477C96.981,158.979 111.396,153.273 118.628,151.353C125.362,149.565 127.612,143.552 128.365,140.062C128.937,137.409 137.141,134.998 141.389,134.072C146.558,132.944 151.183,131.195 151.615,129.275C152.346,126.027 147.215,125.538 146.102,122.146C145.188,119.359 149.54,117.078 152.821,115.833C159.857,113.165 164.967,106.654 164.967,106.654C164.967,106.654 167.72,110.481 163.331,113.735C159.874,116.298 152.405,119.414 152.321,123.1C152.252,126.177 161.986,126.768 158.929,131.877C156.103,136.603 143.51,139.151 142.344,142.004C140.905,145.527 140.159,149.371 132.35,154.56C125.615,159.036 112.048,158.714 97.333,169.387C82.618,180.059 100.799,188.545 100.799,188.545L42.149,188.545Z" style="fill:url(#_Linear3);"/>
    </g>
    <defs>
        <linearGradient id="_Linear1" x1="0" y1="0" x2="1" y2="0" gradientUnits="userSpaceOnUse" gradientTransform="matrix(1.241e-14,202.235,-202.67,1.23833e-14,599.895,2.46786)"><stop offset="0" style="stop-color:rgb(85,105,215);stop-opacity:1"/><stop offset="1" style="stop-color:rgb(175,188,230);stop-opacity:1"/></linearGradient>
        <linearGradient id="_Linear2" x1="0" y1="0" x2="1" y2="0" gradientUnits="userSpaceOnUse" gradientTransform="matrix(1.98362,136.367,-92.2931,2.9309,110.911,62.6948)"><stop offset="0" style="stop-color:white;stop-opacity:1"/><stop offset="0.2" style="stop-color:rgb(173,213,252);stop-opacity:1"/><stop offset="0.3" style="stop-color:rgb(139,166,144);stop-opacity:1"/><stop offset="0.4" style="stop-color:rgb(127,150,108);stop-opacity:1"/><stop offset="1" style="stop-color:rgb(102,142,118);stop-opacity:1"/></linearGradient>
        <linearGradient id="_Linear3" x1="0" y1="0" x2="1" y2="0" gradientUnits="userSpaceOnUse" gradientTransform="matrix(-6.65443,72.7783,-0.62426,-0.0125226,147.85,113.561)"><stop offset="0" style="stop-color:rgb(112,129,255);stop-opacity:1"/><stop offset="1" style="stop-color:rgb(80,95,252);stop-opacity:1"/></linearGradient>
    </defs>
</svg>
