<?xml version="1.0" encoding="utf-8"?>
<!-- Svg Vector Icons : http://www.onlinewebfonts.com/icon -->
<!DOCTYPE svg PUBLIC "-//W3C//DTD SVG 1.1//EN" "http://www.w3.org/Graphics/SVG/1.1/DTD/svg11.dtd">
<svg version="1.1" xmlns="http://www.w3.org/2000/svg" xmlns:xlink="http://www.w3.org/1999/xlink" x="0px" y="0px" viewBox="0 0 256 256" enable-background="new 0 0 256 256" xml:space="preserve">
<metadata> Svg Vector Icons : http://www.onlinewebfonts.com/icon </metadata>
<g><g><g>
<path fill="#ffffff" d="M59.4,38.8C50.6,41.2,44.5,49,44.5,58.1c0,13.1,12.4,22.7,25.1,19.3c9.8-2.5,16.4-12.8,14.6-22.5C82.1,43.2,70.7,35.8,59.4,38.8z"/>
<path fill="#ffffff" d="M186.9,38.6c-5.4,1.4-11,5.8-13.3,10.7c-6.8,13.9,4,30,19.2,28.8c7.8-0.6,14.5-5.4,17.3-12.6c1.5-3.8,1.5-10.7,0-14.6c-2-5.1-6.5-9.5-11.6-11.4C195.6,38.3,189.6,37.9,186.9,38.6z"/>
<path fill="#ffffff" d="M48.4,81.9c-6.5,0.7-11.3,3.9-15.8,10.3c-4,5.8-22.2,43-22.5,46.2c-0.3,2.8,1.2,5.9,3.7,7.5c2.7,1.8,6.5,1.8,9.1-0.1c1.8-1.2,2.8-3.1,11.7-20.2l9.7-18.8l0.2,52.4c0.2,51.8,0.2,52.5,1.2,54.1c0.6,0.9,1.8,2.2,3,3c1.7,1.2,2.4,1.4,4.9,1.4c2.5,0,3.2-0.2,4.9-1.4c1.1-0.8,2.4-2.3,3-3.4l1.1-2v-27.4v-27.4l2,0.1l1.9,0.1l0.2,27.7c0.3,30.5,0.1,29.1,3.2,31.7c4.2,3.5,10.5,2.4,13.5-2.3l1.1-1.8l0.1-52.6l0.1-52.6l7.4,14.9l7.3,15l1.8-3c2.2-3.8,6.2-8.1,8.6-9.3c1.1-0.5,1.9-1,2-1.1c0.2-0.2-9.6-21.2-11.9-25.3c-4.8-8.7-9.3-13.2-15.2-15.2c-2.3-0.8-4.3-0.9-17.8-1C58.5,81.6,50.2,81.7,48.4,81.9z"/>
<path fill="#ffffff" d="M175,81.9c-7.4,0.9-12.6,5-18.1,14.5c-2,3.5-12.8,25.8-12.8,26.5c0,0.2,1,0.8,2.1,1.3c2.8,1.4,6.3,4.7,8.3,8c0.9,1.5,1.7,2.7,1.8,2.7c0,0,3.4-6.2,7.3-13.8c4-7.7,7.3-13.8,7.4-13.7c0.1,0.1-1.8,9.7-4.1,21.4l-4.3,21.2l2.8,5.5c1.9,3.8,2.8,6.2,3,7.8c0.5,4.4-1.4,8.4-4.7,10.3l-1.8,1.1h4.7h4.7v17.9v17.9l1.2,2.4c1.9,3.9,6.1,5.8,10.2,4.7c2.4-0.6,4.5-2.4,5.7-4.7c0.9-1.7,0.9-2.8,0.9-20v-18.2h2.1h2l0.1,18.5l0.1,18.6l1.1,1.8c3.8,6.1,12.5,5.8,15.7-0.6c0.9-1.7,0.9-2.8,0.9-20v-18.2h6.9c6.3,0,6.9-0.1,6.9-0.8c0-0.5-3-15.4-6.7-33.3c-3.7-17.8-6.6-32.5-6.5-32.6c0.1-0.1,4.4,8.1,9.6,18.2c8.6,16.7,9.6,18.4,11.4,19.7c4.1,2.9,9.8,1.4,12-3.1c1.2-2.5,1.2-4.3,0.1-7.1c-2.2-5.5-19.6-40.1-21.8-43.3c-4.5-6.6-9.2-9.6-16.1-10.4C202.7,81.4,179.5,81.4,175,81.9z"/>
<path fill="#ffffff" d="M124,98.9c-6.5,2.2-10.2,8.6-8.9,15.2c2,10.3,14.8,14.3,22.3,7.1c7.5-7.2,4.4-19.5-5.5-22.5C129,97.9,126.9,97.9,124,98.9z"/>
<path fill="#ffffff" d="M115.8,127.5c-2.6,0.7-5.2,2.3-7.4,4.7c-3,3.3-16.5,30.5-16.5,33.2c0,4.6,5.6,7.1,8.9,4.1c0.9-0.8,3.6-5.6,7.6-13.2l6.2-12v34c0,27.8,0.1,34.3,0.6,35.5c2.1,5,8.6,5.3,10.9,0.6c0.9-1.8,0.9-2.8,0.9-19.8v-17.8h1.2h1.2v18c0,15.9,0.1,18.2,0.8,19.6c2.1,4.5,8.3,4.4,10.9-0.1c0.4-0.6,0.6-10.5,0.8-35.3l0.2-34.4l2,3.9c9.1,17.8,10.7,20.6,12,21.4c2.5,1.5,6,0.7,7.6-1.7c1.6-2.4,1.1-4-5.7-17.9c-8.2-16.9-10-19.5-15-22.2c-1.8-1-2.5-1-13.9-1.1C122.5,127.2,116.6,127.3,115.8,127.5z"/>
</g></g></g>
</svg>