<?xml version="1.0" encoding="UTF-8" standalone="no"?>
<!DOCTYPE svg PUBLIC "-//W3C//DTD SVG 1.1//EN" "http://www.w3.org/Graphics/SVG/1.1/DTD/svg11.dtd">
<svg width="100%" height="100%" viewBox="0 0 50 50" version="1.1" xmlns="http://www.w3.org/2000/svg" xmlns:xlink="http://www.w3.org/1999/xlink" xml:space="preserve" xmlns:serif="http://www.serif.com/" style="fill-rule:evenodd;clip-rule:evenodd;stroke-linejoin:round;stroke-miterlimit:2;">
    <g transform="matrix(1.21113,0,0,2.05838,-5.40687,-19.1283)">
        <path d="M44.097,12.7C44.097,13.79 42.592,14.675 40.739,14.675L9.473,14.675C7.62,14.675 6.116,13.79 6.116,12.7C6.116,11.609 7.62,10.724 9.473,10.724L40.739,10.724C42.592,10.724 44.097,11.609 44.097,12.7Z"/>
    </g>
    <g transform="matrix(1.21113,0,0,2.05838,-5.40687,15.6682)">
        <path d="M44.097,12.7C44.097,13.79 42.592,14.675 40.739,14.675L9.473,14.675C7.62,14.675 6.116,13.79 6.116,12.7C6.116,11.609 7.62,10.724 9.473,10.724L40.739,10.724C42.592,10.724 44.097,11.609 44.097,12.7Z"/>
    </g>
    <g transform="matrix(1.21113,0,0,2.05838,-5.40687,-1.14034)">
        <path d="M44.097,12.7C44.097,13.79 42.592,14.675 40.739,14.675L9.473,14.675C7.62,14.675 6.116,13.79 6.116,12.7C6.116,11.609 7.62,10.724 9.473,10.724L40.739,10.724C42.592,10.724 44.097,11.609 44.097,12.7Z"/>
    </g>
</svg>
